<svg width="1096" height="139" viewBox="0 0 1096 139" fill="none" xmlns="http://www.w3.org/2000/svg">
<path d="M151.585 8.87534C151.585 3.97362 155.559 0 160.461 0C165.363 0 169.336 3.97362 169.336 8.87534L169.336 129.771C169.336 134.672 165.363 138.646 160.461 138.646C155.559 138.646 151.585 134.672 151.585 129.771L151.585 8.87534Z" fill="#363A3D"/>
<path d="M110.166 9.46703C110.166 4.23853 114.405 0 119.633 0C124.862 0 129.1 4.23853 129.1 9.46703L129.1 129.179C129.1 134.407 124.862 138.646 119.633 138.646C114.405 138.646 110.166 134.407 110.166 129.179L110.166 9.46703Z" fill="#363A3D"/>
<path d="M69.9314 8.87534C69.9314 3.97362 73.905 0 78.8067 0C83.7085 0 87.6821 3.97362 87.6821 8.87534L87.6821 129.771C87.6821 134.672 83.7085 138.646 78.8067 138.646C73.905 138.646 69.9314 134.672 69.9314 129.771L69.9314 8.87534Z" fill="#363A3D"/>
<path d="M29.696 8.87534C29.696 3.97362 33.6697 0 38.5714 0C43.4731 0 47.4467 3.97362 47.4467 8.87534L47.4467 129.771C47.4467 134.672 43.4731 138.646 38.5714 138.646C33.6697 138.646 29.696 134.672 29.696 129.771L29.696 8.87534Z" fill="#363A3D"/>
<path d="M191.821 8.87534C191.821 3.97362 195.794 0 200.696 0C205.598 0 209.571 3.97362 209.571 8.87534L209.571 129.771C209.571 134.672 205.598 138.646 200.696 138.646C195.794 138.646 191.821 134.672 191.821 129.771L191.821 8.87534Z" fill="#363A3D"/>
<path d="M232.054 9.46703C232.054 4.23853 236.292 0 241.521 0C246.749 0 250.988 4.23853 250.988 9.46703L250.988 129.179C250.988 134.407 246.749 138.646 241.521 138.646C236.292 138.646 232.054 134.407 232.054 129.179L232.054 9.46703Z" fill="#363A3D"/>
<path d="M272.289 9.46703C272.289 4.23853 276.527 0 281.756 0C286.984 0 291.223 4.23853 291.223 9.46703L291.223 129.179C291.223 134.407 286.984 138.646 281.756 138.646C276.527 138.646 272.289 134.407 272.289 129.179L272.289 9.46703Z" fill="#363A3D"/>
<path d="M313.708 8.87534C313.708 3.97362 317.681 0 322.583 0C327.485 0 331.458 3.97362 331.458 8.87534L331.458 129.771C331.458 134.672 327.485 138.646 322.583 138.646C317.681 138.646 313.708 134.672 313.708 129.771L313.708 8.87534Z" fill="#363A3D"/>
<path d="M353.941 9.46703C353.941 4.23853 358.18 0 363.408 0C368.637 0 372.875 4.23853 372.875 9.46703L372.875 129.179C372.875 134.407 368.637 138.646 363.408 138.646C358.18 138.646 353.941 134.407 353.941 129.179L353.941 9.46703Z" fill="#363A3D"/>
<path d="M394.177 9.46703C394.177 4.23853 398.415 0 403.644 0C408.872 0 413.111 4.23853 413.111 9.46703L413.111 129.179C413.111 134.407 408.872 138.646 403.644 138.646C398.415 138.646 394.177 134.407 394.177 129.179L394.177 9.46703Z" fill="#363A3D"/>
<path d="M435.595 8.87534C435.595 3.97362 439.569 0 444.471 0C449.373 0 453.346 3.97362 453.346 8.87534L453.346 129.771C453.346 134.672 449.373 138.646 444.471 138.646C439.569 138.646 435.595 134.672 435.595 129.771L435.595 8.87534Z" fill="#363A3D"/>
<path d="M475.831 9.46703C475.831 4.23853 480.069 0 485.298 0C490.526 0 494.765 4.23853 494.765 9.46703L494.765 129.179C494.765 134.407 490.526 138.646 485.298 138.646C480.069 138.646 475.831 134.407 475.831 129.179L475.831 9.46703Z" fill="#363A3D"/>
<path d="M516.066 9.46703C516.066 4.23853 520.304 0 525.533 0C530.761 0 535 4.23853 535 9.46703V129.179C535 134.407 530.761 138.646 525.533 138.646C520.304 138.646 516.066 134.407 516.066 129.179V9.46703Z" fill="#363A3D"/>
<g filter="url(#filter0_d_1051_854)">
<rect x="2" y="21" width="561" height="97" rx="0.825274" fill="#0F1417"/>
<rect x="2.41264" y="21.4126" width="560.175" height="96.1747" rx="0.412637" stroke="url(#paint0_linear_1051_854)" stroke-opacity="0.3" stroke-width="0.825274"/>
</g>
<rect x="578" y="27" width="518" height="84" rx="0.783404" fill="#12191D"/>
<rect x="66.6257" y="62.3909" width="18.4643" height="13.8646" rx="6.9323" fill="black"/>
<rect x="66.2131" y="61.9782" width="19.2896" height="14.6899" rx="7.34494" stroke="url(#paint1_linear_1051_854)" stroke-opacity="0.3" stroke-width="0.825274"/>
<rect x="445.143" y="62.3909" width="18.4643" height="13.8646" rx="6.9323" fill="black"/>
<rect x="444.73" y="61.9782" width="19.2896" height="14.6899" rx="7.34494" stroke="url(#paint2_linear_1051_854)" stroke-opacity="0.3" stroke-width="0.825274"/>
<defs>
<filter id="filter0_d_1051_854" x="0.349452" y="19.3495" width="564.301" height="100.301" filterUnits="userSpaceOnUse" color-interpolation-filters="sRGB">
<feFlood flood-opacity="0" result="BackgroundImageFix"/>
<feColorMatrix in="SourceAlpha" type="matrix" values="0 0 0 0 0 0 0 0 0 0 0 0 0 0 0 0 0 0 127 0" result="hardAlpha"/>
<feOffset/>
<feGaussianBlur stdDeviation="0.825274"/>
<feColorMatrix type="matrix" values="0 0 0 0 0 0 0 0 0 0 0 0 0 0 0 0 0 0 0.8 0"/>
<feBlend mode="normal" in2="BackgroundImageFix" result="effect1_dropShadow_1051_854"/>
<feBlend mode="normal" in="SourceGraphic" in2="effect1_dropShadow_1051_854" result="shape"/>
</filter>
<linearGradient id="paint0_linear_1051_854" x1="2" y1="69.5" x2="563" y2="69.4999" gradientUnits="userSpaceOnUse">
<stop stop-color="#2C333A"/>
<stop offset="1" stop-color="#262C32" stop-opacity="0"/>
</linearGradient>
<linearGradient id="paint1_linear_1051_854" x1="66.6257" y1="69.3232" x2="85.09" y2="69.3232" gradientUnits="userSpaceOnUse">
<stop stop-color="#262C32" stop-opacity="0"/>
<stop offset="1" stop-color="#2C333A"/>
</linearGradient>
<linearGradient id="paint2_linear_1051_854" x1="445.143" y1="69.3232" x2="463.607" y2="69.3232" gradientUnits="userSpaceOnUse">
<stop stop-color="#262C32" stop-opacity="0"/>
<stop offset="1" stop-color="#2C333A"/>
</linearGradient>
</defs>
</svg>
