<svg width="1202" height="139" viewBox="0 0 1202 139" fill="none" xmlns="http://www.w3.org/2000/svg">
<path d="M740.184 9.9195C740.184 4.44111 744.625 0 750.103 0C755.581 0 760.023 4.44111 760.023 9.9195V128.727C760.023 134.205 755.581 138.646 750.103 138.646C744.625 138.646 740.184 134.205 740.184 128.727V9.9195Z" fill="#363A3D"/>
<path d="M693.891 10.5808C693.891 4.73718 698.628 0 704.472 0C710.316 0 715.053 4.73719 715.053 10.5808V128.065C715.053 133.909 710.316 138.646 704.472 138.646C698.628 138.646 693.891 133.909 693.891 128.065V10.5808Z" fill="#363A3D"/>
<path d="M648.923 9.9195C648.923 4.44111 653.364 0 658.842 0C664.321 0 668.762 4.44111 668.762 9.9195V128.727C668.762 134.205 664.321 138.646 658.842 138.646C653.364 138.646 648.923 134.205 648.923 128.727V9.9195Z" fill="#363A3D"/>
<path d="M603.954 9.9195C603.954 4.44111 608.395 0 613.874 0C619.352 0 623.793 4.44111 623.793 9.9195V128.727C623.793 134.205 619.352 138.646 613.874 138.646C608.395 138.646 603.954 134.205 603.954 128.727V9.9195Z" fill="#363A3D"/>
<path d="M785.152 9.9195C785.152 4.44111 789.593 0 795.071 0C800.55 0 804.991 4.44111 804.991 9.9195V128.727C804.991 134.205 800.55 138.646 795.071 138.646C789.593 138.646 785.152 134.205 785.152 128.727V9.9195Z" fill="#363A3D"/>
<path d="M830.119 10.5808C830.119 4.73718 834.856 0 840.7 0C846.544 0 851.281 4.73719 851.281 10.5808V128.065C851.281 133.909 846.544 138.646 840.7 138.646C834.856 138.646 830.119 133.909 830.119 128.065V10.5808Z" fill="#363A3D"/>
<path d="M875.087 10.5808C875.087 4.73718 879.825 0 885.668 0C891.512 0 896.249 4.73719 896.249 10.5808V128.065C896.249 133.909 891.512 138.646 885.668 138.646C879.825 138.646 875.087 133.909 875.087 128.065V10.5808Z" fill="#363A3D"/>
<path d="M921.379 9.9195C921.379 4.44111 925.82 0 931.298 0C936.777 0 941.218 4.44111 941.218 9.9195V128.727C941.218 134.205 936.777 138.646 931.298 138.646C925.82 138.646 921.379 134.205 921.379 128.727V9.9195Z" fill="#363A3D"/>
<path d="M966.346 10.5808C966.346 4.73718 971.083 0 976.927 0C982.77 0 987.507 4.73719 987.507 10.5808V128.065C987.507 133.909 982.77 138.646 976.927 138.646C971.083 138.646 966.346 133.909 966.346 128.065V10.5808Z" fill="#363A3D"/>
<path d="M1011.31 10.5808C1011.31 4.73718 1016.05 0 1021.9 0C1027.74 0 1032.48 4.73719 1032.48 10.5808V128.065C1032.48 133.909 1027.74 138.646 1021.9 138.646C1016.05 138.646 1011.31 133.909 1011.31 128.065V10.5808Z" fill="#363A3D"/>
<path d="M1057.61 9.9195C1057.61 4.44111 1062.05 0 1067.53 0C1073 0 1077.45 4.44111 1077.45 9.9195V128.727C1077.45 134.205 1073 138.646 1067.53 138.646C1062.05 138.646 1057.61 134.205 1057.61 128.727V9.9195Z" fill="#363A3D"/>
<path d="M1102.58 10.5808C1102.58 4.73718 1107.31 0 1113.16 0C1119 0 1123.74 4.73719 1123.74 10.5808V128.065C1123.74 133.909 1119 138.646 1113.16 138.646C1107.31 138.646 1102.58 133.909 1102.58 128.065V10.5808Z" fill="#363A3D"/>
<path d="M1147.54 10.5808C1147.54 4.73718 1152.28 0 1158.12 0C1163.97 0 1168.71 4.73719 1168.71 10.5808V128.065C1168.71 133.909 1163.97 138.646 1158.12 138.646C1152.28 138.646 1147.54 133.909 1147.54 128.065V10.5808Z" fill="#363A3D"/>
<g filter="url(#filter0_d_1149_2331)">
<rect x="573" y="21" width="627" height="97" rx="0.825274" fill="#0F1417"/>
<rect x="573.413" y="21.4126" width="626.175" height="96.1747" rx="0.412637" stroke="url(#paint0_linear_1149_2331)" stroke-opacity="0.3" stroke-width="0.825274"/>
</g>
<rect y="28" width="533.3" height="84" rx="0.783404" fill="#12191D"/>
<defs>
<filter id="filter0_d_1149_2331" x="571.349" y="19.3495" width="630.301" height="100.301" filterUnits="userSpaceOnUse" color-interpolation-filters="sRGB">
<feFlood flood-opacity="0" result="BackgroundImageFix"/>
<feColorMatrix in="SourceAlpha" type="matrix" values="0 0 0 0 0 0 0 0 0 0 0 0 0 0 0 0 0 0 127 0" result="hardAlpha"/>
<feOffset/>
<feGaussianBlur stdDeviation="0.825274"/>
<feColorMatrix type="matrix" values="0 0 0 0 0 0 0 0 0 0 0 0 0 0 0 0 0 0 0.8 0"/>
<feBlend mode="normal" in2="BackgroundImageFix" result="effect1_dropShadow_1149_2331"/>
<feBlend mode="normal" in="SourceGraphic" in2="effect1_dropShadow_1149_2331" result="shape"/>
</filter>
<linearGradient id="paint0_linear_1149_2331" x1="573" y1="69.5" x2="1200" y2="69.4999" gradientUnits="userSpaceOnUse">
<stop stop-color="#2C333A"/>
<stop offset="1" stop-color="#262C32" stop-opacity="0"/>
</linearGradient>
</defs>
</svg>
