<svg width="1315" height="662" viewBox="0 0 1315 662" fill="none" xmlns="http://www.w3.org/2000/svg">
<rect y="0.896484" width="1315" height="660.662" rx="41.2637" fill="#2F3234"/>
<g filter="url(#filter0_d_824_1988)">
<rect x="59.6562" y="61.936" width="1195.69" height="543.969" rx="6.60219" fill="black"/>
</g>
<g filter="url(#filter1_d_824_1988)">
<rect x="69.8828" y="70.0139" width="1175.23" height="525.119" rx="6.60219" fill="#006771"/>
</g>
<rect x="14.7505" y="17.6571" width="45.876" height="45.876" rx="22.938" fill="black"/>
<rect x="1257.31" y="17.6571" width="45.876" height="45.876" rx="22.938" fill="black"/>
<rect x="14.7505" y="601.123" width="45.876" height="45.876" rx="22.938" fill="black"/>
<rect x="1257.31" y="601.123" width="45.876" height="45.876" rx="22.938" fill="black"/>
<rect x="19.6592" y="23.0593" width="35.5169" height="35.5169" rx="17.7585" fill="#111110"/>
<rect x="1262.22" y="23.0593" width="35.5169" height="35.5169" rx="17.7585" fill="#111110"/>
<path d="M144.943 34.8213C144.943 31.0032 148.039 27.908 151.857 27.908H152.147C156.014 27.908 159.148 31.0428 159.148 34.9097V34.9097V34.9097C159.148 38.679 156.093 41.7346 152.324 41.7346H151.857C148.039 41.7346 144.943 38.6394 144.943 34.8213V34.8213Z" fill="#DC9036"/>
<rect x="143.949" width="16.1925" height="34.1103" fill="#DC9036"/>
<rect x="145.483" y="27.4296" width="13.0944" height="13.0944" rx="6.5472" fill="#283D4D"/>
<path d="M192.668 35.7177C192.668 31.8996 195.763 28.8044 199.581 28.8044H199.871C203.738 28.8044 206.873 31.9393 206.873 35.8062V35.8062V35.8062C206.873 39.5755 203.817 42.631 200.048 42.631H199.581C195.763 42.631 192.668 39.5359 192.668 35.7177V35.7177Z" fill="#DC9036"/>
<rect x="191.674" y="0.896484" width="16.1925" height="34.1103" fill="#DC9036"/>
<rect x="193.208" y="28.3259" width="13.0944" height="13.0944" rx="6.5472" fill="#283D4D"/>
<path d="M240.396 35.7177C240.396 31.8996 243.492 28.8044 247.31 28.8044H247.6C251.467 28.8044 254.602 31.9393 254.602 35.8062V35.8062V35.8062C254.602 39.5755 251.546 42.631 247.777 42.631H247.31C243.492 42.631 240.396 39.5359 240.396 35.7177V35.7177Z" fill="#DC9036"/>
<rect x="239.402" y="0.896484" width="16.1925" height="34.1103" fill="#DC9036"/>
<rect x="240.936" y="28.3259" width="13.0944" height="13.0944" rx="6.5472" fill="#283D4D"/>
<path d="M288.117 35.7177C288.117 31.8996 291.212 28.8044 295.03 28.8044H295.32C299.187 28.8044 302.322 31.9393 302.322 35.8062V35.8062V35.8062C302.322 39.5755 299.267 42.631 295.497 42.631H295.03C291.212 42.631 288.117 39.5359 288.117 35.7177V35.7177Z" fill="#DC9036"/>
<rect x="287.123" y="0.896484" width="16.1925" height="34.1103" fill="#DC9036"/>
<rect x="288.657" y="28.3259" width="13.0944" height="13.0944" rx="6.5472" fill="#283D4D"/>
<path d="M1039.51 627.179C1039.51 630.997 1036.41 634.092 1032.6 634.092H1032.31C1028.44 634.092 1025.3 630.957 1025.3 627.09C1025.3 623.321 1028.36 620.265 1032.13 620.265H1032.6C1036.41 620.265 1039.51 623.361 1039.51 627.179Z" fill="#DC9036"/>
<rect x="1040.5" y="662" width="16.1925" height="34.1103" transform="rotate(-180 1040.5 662)" fill="#DC9036"/>
<rect x="1038.97" y="634.571" width="13.0944" height="13.0944" rx="6.5472" transform="rotate(-180 1038.97 634.571)" fill="#283D4D"/>
<path d="M991.787 626.285C991.787 630.103 988.692 633.198 984.874 633.198H984.584C980.717 633.198 977.582 630.063 977.582 626.196C977.582 622.427 980.638 619.372 984.407 619.372H984.874C988.692 619.372 991.787 622.467 991.787 626.285Z" fill="#DC9036"/>
<rect x="992.781" y="661.106" width="16.1925" height="34.1103" transform="rotate(-180 992.781 661.106)" fill="#DC9036"/>
<rect x="991.247" y="633.677" width="13.0944" height="13.0944" rx="6.5472" transform="rotate(-180 991.247 633.677)" fill="#283D4D"/>
<path d="M944.061 626.285C944.061 630.103 940.965 633.198 937.147 633.198H936.857C932.99 633.198 929.855 630.063 929.855 626.196C929.855 622.427 932.911 619.372 936.68 619.372H937.147C940.965 619.372 944.061 622.467 944.061 626.285Z" fill="#DC9036"/>
<rect x="945.055" y="661.106" width="16.1925" height="34.1103" transform="rotate(-180 945.055 661.106)" fill="#DC9036"/>
<rect x="943.521" y="633.677" width="13.0944" height="13.0944" rx="6.5472" transform="rotate(-180 943.521 633.677)" fill="#283D4D"/>
<path d="M896.334 626.285C896.334 630.103 893.239 633.198 889.421 633.198H889.131C885.264 633.198 882.129 630.063 882.129 626.196C882.129 622.427 885.184 619.372 888.954 619.372H889.421C893.239 619.372 896.334 622.467 896.334 626.285Z" fill="#DC9036"/>
<rect x="897.328" y="661.106" width="16.1925" height="34.1103" transform="rotate(-180 897.328 661.106)" fill="#DC9036"/>
<rect x="895.794" y="633.677" width="13.0944" height="13.0944" rx="6.5472" transform="rotate(-180 895.794 633.677)" fill="#283D4D"/>
<rect x="19.6592" y="606.524" width="35.5169" height="35.5169" rx="17.7585" fill="#111110"/>
<rect x="1262.22" y="606.524" width="35.5169" height="35.5169" rx="17.7585" fill="#111110"/>
<defs>
<filter id="filter0_d_824_1988" x="56.3552" y="61.936" width="1202.29" height="553.873" filterUnits="userSpaceOnUse" color-interpolation-filters="sRGB">
<feFlood flood-opacity="0" result="BackgroundImageFix"/>
<feColorMatrix in="SourceAlpha" type="matrix" values="0 0 0 0 0 0 0 0 0 0 0 0 0 0 0 0 0 0 127 0" result="hardAlpha"/>
<feOffset dy="6.60219"/>
<feGaussianBlur stdDeviation="1.65055"/>
<feComposite in2="hardAlpha" operator="out"/>
<feColorMatrix type="matrix" values="0 0 0 0 0 0 0 0 0 0 0 0 0 0 0 0 0 0 0.25 0"/>
<feBlend mode="normal" in2="BackgroundImageFix" result="effect1_dropShadow_824_1988"/>
<feBlend mode="normal" in="SourceGraphic" in2="effect1_dropShadow_824_1988" result="shape"/>
</filter>
<filter id="filter1_d_824_1988" x="53.3773" y="53.5084" width="1208.24" height="558.13" filterUnits="userSpaceOnUse" color-interpolation-filters="sRGB">
<feFlood flood-opacity="0" result="BackgroundImageFix"/>
<feColorMatrix in="SourceAlpha" type="matrix" values="0 0 0 0 0 0 0 0 0 0 0 0 0 0 0 0 0 0 127 0" result="hardAlpha"/>
<feOffset/>
<feGaussianBlur stdDeviation="8.25274"/>
<feComposite in2="hardAlpha" operator="out"/>
<feColorMatrix type="matrix" values="0 0 0 0 0.0588235 0 0 0 0 0.639216 0 0 0 0 0.694118 0 0 0 1 0"/>
<feBlend mode="normal" in2="BackgroundImageFix" result="effect1_dropShadow_824_1988"/>
<feBlend mode="normal" in="SourceGraphic" in2="effect1_dropShadow_824_1988" result="shape"/>
</filter>
</defs>
</svg>
