<svg width="593" height="863" viewBox="0 0 593 863" fill="none" xmlns="http://www.w3.org/2000/svg">
<rect width="593" height="862.998" rx="20" fill="#2F3234"/>
<g filter="url(#filter0_d_1149_3069)">
<rect x="54.3125" y="49.0732" width="484.376" height="771.909" rx="20" fill="#0C0C0C"/>
</g>
<rect x="12.7739" y="34.7051" width="32.9748" height="32.9748" rx="16.4874" fill="black"/>
<rect x="548" y="31" width="32.9748" height="32.9748" rx="16.4874" fill="black"/>
<rect x="548" y="800" width="32.9748" height="32.9748" rx="16.4874" fill="black"/>
<rect x="12.7739" y="803.962" width="32.9748" height="32.9748" rx="16.4874" fill="black"/>
<path d="M352.088 21.6193C352.088 19.4484 353.848 17.6885 356.019 17.6885H362.552C364.751 17.6885 366.533 19.4709 366.533 21.6696C366.533 23.8127 364.796 25.5501 362.653 25.5501H356.019C353.848 25.5501 352.088 23.7902 352.088 21.6193Z" fill="#DC9036"/>
<rect x="352.088" width="14.4449" height="21.6194" rx="7.22243" fill="#DC9036"/>
<rect x="354.809" y="15.3057" width="9.42087" height="9.42087" rx="4.71044" fill="#E4B67F"/>
<path d="M321.995 21.6232C321.995 19.4523 323.755 17.6924 325.925 17.6924H332.458C334.657 17.6924 336.439 19.4748 336.439 21.6735C336.439 23.8166 334.702 25.554 332.559 25.554H325.925C323.755 25.554 321.995 23.7941 321.995 21.6232Z" fill="#DC9036"/>
<rect x="321.995" y="0.00292969" width="14.4449" height="21.6194" rx="7.22243" fill="#DC9036"/>
<rect x="324.718" y="15.3096" width="9.42087" height="9.42087" rx="4.71044" fill="#E4B67F"/>
<path d="M291.902 21.6232C291.902 19.4523 293.662 17.6924 295.833 17.6924H302.366C304.565 17.6924 306.347 19.4748 306.347 21.6735C306.347 23.8166 304.61 25.554 302.467 25.554H295.833C293.662 25.554 291.902 23.7941 291.902 21.6232Z" fill="#DC9036"/>
<rect x="291.902" y="0.00292969" width="14.4449" height="21.6194" rx="7.22243" fill="#DC9036"/>
<rect x="294.623" y="15.3096" width="9.42087" height="9.42087" rx="4.71044" fill="#E4B67F"/>
<path d="M261.801 21.6232C261.801 19.4523 263.561 17.6924 265.732 17.6924H272.265C274.463 17.6924 276.246 19.4748 276.246 21.6735C276.246 23.8166 274.508 25.554 272.365 25.554H265.732C263.561 25.554 261.801 23.7941 261.801 21.6232Z" fill="#DC9036"/>
<rect x="261.801" y="0.00292969" width="14.4449" height="21.6194" rx="7.22243" fill="#DC9036"/>
<rect x="264.521" y="15.3096" width="9.42087" height="9.42087" rx="4.71044" fill="#E4B67F"/>
<path d="M30.1089 350.22C27.2868 350.22 24.999 347.932 24.999 345.11C24.999 342.288 27.2868 340 30.1089 340H30.626H31.0009C33.823 340 36.1108 342.288 36.1108 345.11C36.1108 347.932 33.823 350.22 31.0009 350.22H30.1089Z" fill="#DC9036"/>
<rect y="350.22" width="10.2198" height="30.5574" rx="5.10989" transform="rotate(-90 0 350.22)" fill="#DC9036"/>
<rect x="25.7266" y="349.46" width="8.70025" height="8.70025" rx="4.35013" transform="rotate(-90 25.7266 349.46)" fill="#E4B67F"/>
<path d="M30.1089 371.512C27.2868 371.512 24.999 369.224 24.999 366.402C24.999 363.58 27.2868 361.292 30.1089 361.292H30.626H31.0009C33.823 361.292 36.1108 363.58 36.1108 366.402C36.1108 369.224 33.823 371.512 31.0009 371.512H30.1089Z" fill="#DC9036"/>
<rect y="371.512" width="10.2198" height="30.5574" rx="5.10989" transform="rotate(-90 0 371.512)" fill="#DC9036"/>
<rect x="25.7266" y="370.752" width="8.70032" height="8.70032" rx="4.35016" transform="rotate(-90 25.7266 370.752)" fill="#E4B67F"/>
<path d="M30.1089 392.801C27.2868 392.801 24.999 390.513 24.999 387.691C24.999 384.869 27.2868 382.581 30.1089 382.581H30.626H31.0009C33.823 382.581 36.1108 384.869 36.1108 387.691C36.1108 390.513 33.823 392.801 31.0009 392.801H30.1089Z" fill="#DC9036"/>
<rect y="392.801" width="10.2198" height="30.5574" rx="5.10989" transform="rotate(-90 0 392.801)" fill="#DC9036"/>
<rect x="25.7266" y="392.041" width="8.70026" height="8.70026" rx="4.35013" transform="rotate(-90 25.7266 392.041)" fill="#E4B67F"/>
<path d="M30.1089 414.093C27.2868 414.093 24.999 411.805 24.999 408.983C24.999 406.161 27.2868 403.873 30.1089 403.873H30.626H31.0009C33.823 403.873 36.1108 406.161 36.1108 408.983C36.1108 411.805 33.823 414.093 31.0009 414.093H30.1089Z" fill="#DC9036"/>
<rect y="414.093" width="10.2198" height="30.5574" rx="5.10989" transform="rotate(-90 0 414.093)" fill="#DC9036"/>
<rect x="25.7266" y="413.333" width="8.70026" height="8.70026" rx="4.35013" transform="rotate(-90 25.7266 413.333)" fill="#E4B67F"/>
<defs>
<filter id="filter0_d_1149_3069" x="51.0114" y="49.0732" width="490.978" height="781.811" filterUnits="userSpaceOnUse" color-interpolation-filters="sRGB">
<feFlood flood-opacity="0" result="BackgroundImageFix"/>
<feColorMatrix in="SourceAlpha" type="matrix" values="0 0 0 0 0 0 0 0 0 0 0 0 0 0 0 0 0 0 127 0" result="hardAlpha"/>
<feOffset dy="6.60219"/>
<feGaussianBlur stdDeviation="1.65055"/>
<feComposite in2="hardAlpha" operator="out"/>
<feColorMatrix type="matrix" values="0 0 0 0 0 0 0 0 0 0 0 0 0 0 0 0 0 0 0.25 0"/>
<feBlend mode="normal" in2="BackgroundImageFix" result="effect1_dropShadow_1149_3069"/>
<feBlend mode="normal" in="SourceGraphic" in2="effect1_dropShadow_1149_3069" result="shape"/>
</filter>
</defs>
</svg>
