<svg width="644" height="645" viewBox="0 0 644 645" fill="none" xmlns="http://www.w3.org/2000/svg">
<rect y="0.000976562" width="644" height="644.812" rx="20" fill="#2F3234"/>
<g filter="url(#filter0_d_1149_2382)">
<rect x="58.9839" y="36.668" width="526.034" height="576.752" rx="20" fill="#0C0C0C"/>
</g>
<rect x="16.9263" y="23.3984" width="29.7036" height="29.7036" rx="14.8518" fill="black"/>
<rect x="597.13" y="23.3984" width="29.7036" height="29.7036" rx="14.8518" fill="black"/>
<rect x="16.9263" y="598.17" width="29.7036" height="29.7036" rx="14.8518" fill="black"/>
<rect x="597.13" y="598.17" width="29.7036" height="29.7036" rx="14.8518" fill="black"/>
<rect x="20.1577" y="26.958" width="22.9964" height="22.9964" rx="11.4982" fill="#111110"/>
<rect x="600.362" y="26.958" width="22.9964" height="22.9964" rx="11.4982" fill="#111110"/>
<rect x="20.1577" y="601.728" width="22.9964" height="22.9964" rx="11.4982" fill="#111110"/>
<rect x="600.362" y="601.728" width="22.9964" height="22.9964" rx="11.4982" fill="#111110"/>
<path d="M349.088 21.6193C349.088 19.4484 350.848 17.6885 353.019 17.6885H359.552C361.751 17.6885 363.533 19.4709 363.533 21.6696C363.533 23.8127 361.796 25.5501 359.653 25.5501H353.019C350.848 25.5501 349.088 23.7902 349.088 21.6193Z" fill="#DC9036"/>
<rect x="349.088" width="14.4449" height="21.6194" rx="7.22243" fill="#DC9036"/>
<rect x="351.809" y="15.3057" width="9.42087" height="9.42087" rx="4.71044" fill="#E4B67F"/>
<path d="M318.995 21.6232C318.995 19.4523 320.755 17.6924 322.925 17.6924H329.458C331.657 17.6924 333.439 19.4748 333.439 21.6735C333.439 23.8166 331.702 25.554 329.559 25.554H322.925C320.755 25.554 318.995 23.7941 318.995 21.6232Z" fill="#DC9036"/>
<rect x="318.995" y="0.00292969" width="14.4449" height="21.6194" rx="7.22243" fill="#DC9036"/>
<rect x="321.718" y="15.3096" width="9.42087" height="9.42087" rx="4.71044" fill="#E4B67F"/>
<path d="M288.902 21.6232C288.902 19.4523 290.662 17.6924 292.833 17.6924H299.366C301.565 17.6924 303.347 19.4748 303.347 21.6735C303.347 23.8166 301.61 25.554 299.467 25.554H292.833C290.662 25.554 288.902 23.7941 288.902 21.6232Z" fill="#DC9036"/>
<rect x="288.902" y="0.00292969" width="14.4449" height="21.6194" rx="7.22243" fill="#DC9036"/>
<rect x="291.623" y="15.3096" width="9.42087" height="9.42087" rx="4.71044" fill="#E4B67F"/>
<path d="M258.801 21.6232C258.801 19.4523 260.561 17.6924 262.732 17.6924H269.265C271.463 17.6924 273.246 19.4748 273.246 21.6735C273.246 23.8166 271.508 25.554 269.365 25.554H262.732C260.561 25.554 258.801 23.7941 258.801 21.6232Z" fill="#DC9036"/>
<rect x="258.801" y="0.00292969" width="14.4449" height="21.6194" rx="7.22243" fill="#DC9036"/>
<rect x="261.521" y="15.3096" width="9.42087" height="9.42087" rx="4.71044" fill="#E4B67F"/>
<path d="M31.3169 231.651C28.4948 231.651 26.207 229.364 26.207 226.541C26.207 223.719 28.4948 221.432 31.3169 221.432H31.834H32.2089C35.031 221.432 37.3188 223.719 37.3188 226.541C37.3188 229.364 35.031 231.651 32.2089 231.651H31.3169Z" fill="#DC9036"/>
<rect x="1.20801" y="231.651" width="10.2198" height="30.5574" rx="5.10989" transform="rotate(-90 1.20801 231.651)" fill="#DC9036"/>
<rect x="26.9346" y="230.892" width="8.70025" height="8.70025" rx="4.35013" transform="rotate(-90 26.9346 230.892)" fill="#E4B67F"/>
<path d="M31.3169 252.943C28.4948 252.943 26.207 250.656 26.207 247.833C26.207 245.011 28.4948 242.724 31.3169 242.724H31.834H32.2089C35.031 242.724 37.3188 245.011 37.3188 247.833C37.3188 250.656 35.031 252.943 32.2089 252.943H31.3169Z" fill="#DC9036"/>
<rect x="1.20801" y="252.943" width="10.2198" height="30.5574" rx="5.10989" transform="rotate(-90 1.20801 252.943)" fill="#DC9036"/>
<rect x="26.9346" y="252.184" width="8.70032" height="8.70032" rx="4.35016" transform="rotate(-90 26.9346 252.184)" fill="#E4B67F"/>
<path d="M31.3169 274.232C28.4948 274.232 26.207 271.945 26.207 269.123C26.207 266.3 28.4948 264.013 31.3169 264.013H31.834H32.2089C35.031 264.013 37.3188 266.3 37.3188 269.123C37.3188 271.945 35.031 274.232 32.2089 274.232H31.3169Z" fill="#DC9036"/>
<rect x="1.20801" y="274.232" width="10.2198" height="30.5574" rx="5.10989" transform="rotate(-90 1.20801 274.232)" fill="#DC9036"/>
<rect x="26.9346" y="273.473" width="8.70026" height="8.70026" rx="4.35013" transform="rotate(-90 26.9346 273.473)" fill="#E4B67F"/>
<path d="M31.3169 295.524C28.4948 295.524 26.207 293.237 26.207 290.415C26.207 287.592 28.4948 285.305 31.3169 285.305H31.834H32.2089C35.031 285.305 37.3188 287.592 37.3188 290.415C37.3188 293.237 35.031 295.524 32.2089 295.524H31.3169Z" fill="#DC9036"/>
<rect x="1.20801" y="295.524" width="10.2198" height="30.5574" rx="5.10989" transform="rotate(-90 1.20801 295.524)" fill="#DC9036"/>
<rect x="26.9346" y="294.765" width="8.70026" height="8.70026" rx="4.35013" transform="rotate(-90 26.9346 294.765)" fill="#E4B67F"/>
<defs>
<filter id="filter0_d_1149_2382" x="55.6828" y="36.668" width="532.636" height="586.655" filterUnits="userSpaceOnUse" color-interpolation-filters="sRGB">
<feFlood flood-opacity="0" result="BackgroundImageFix"/>
<feColorMatrix in="SourceAlpha" type="matrix" values="0 0 0 0 0 0 0 0 0 0 0 0 0 0 0 0 0 0 127 0" result="hardAlpha"/>
<feOffset dy="6.60219"/>
<feGaussianBlur stdDeviation="1.65055"/>
<feComposite in2="hardAlpha" operator="out"/>
<feColorMatrix type="matrix" values="0 0 0 0 0 0 0 0 0 0 0 0 0 0 0 0 0 0 0.25 0"/>
<feBlend mode="normal" in2="BackgroundImageFix" result="effect1_dropShadow_1149_2382"/>
<feBlend mode="normal" in="SourceGraphic" in2="effect1_dropShadow_1149_2382" result="shape"/>
</filter>
</defs>
</svg>
