<svg width="322" height="322" viewBox="0 0 322 322" fill="none" xmlns="http://www.w3.org/2000/svg">
<path d="M120.75 0H0V120.75H120.75V0ZM100.625 100.625H20.125V20.125H100.625V100.625Z" fill="white"/>
<path d="M40.25 40.25H80.5V80.5H40.25V40.25ZM0 322H120.75V201.25H0V322ZM20.125 221.375H100.625V301.875H20.125V221.375Z" fill="white"/>
<path d="M40.25 241.5H80.5V281.75H40.25V241.5ZM201.25 0V120.75H322V0H201.25ZM301.875 100.625H221.375V20.125H301.875V100.625Z" fill="white"/>
<path d="M241.5 40.25H281.75V80.5H241.5V40.25ZM40.25 140.875H0V181.125H60.375V161H40.25V140.875ZM140.875 181.125H181.125V221.375H140.875V181.125ZM60.375 140.875H100.625V161H60.375V140.875ZM181.125 241.5H140.875V261.625H161V281.75H181.125V261.625V241.5ZM120.75 140.875V161H100.625V181.125H140.875V140.875H120.75ZM161 80.5H181.125V120.75H161V80.5ZM181.125 161V181.125H221.375V140.875H161V161H181.125ZM140.875 120.75H161V140.875H140.875V120.75ZM181.125 281.75H221.375V322H181.125V281.75ZM140.875 281.75H161V322H140.875V281.75ZM181.125 221.375H201.25V241.5H181.125V221.375ZM181.125 60.375V20.125H161V0H140.875V80.5H161V60.375H181.125ZM241.5 281.75H261.625V322H241.5V281.75ZM241.5 241.5H281.75V261.625H241.5V241.5ZM221.375 261.625H241.5V281.75H221.375V261.625ZM201.25 241.5H221.375V261.625H201.25V241.5ZM281.75 201.25V221.375H301.875V241.5H322V201.25H301.875H281.75ZM301.875 261.625H281.75V322H322V281.75H301.875V261.625ZM201.25 201.25V221.375H261.625V181.125H221.375V201.25H201.25ZM241.5 140.875V161H281.75V181.125H322V140.875H281.75H241.5Z" fill="white"/>
</svg>
