<svg width="537" height="442" viewBox="0 0 537 442" fill="none" xmlns="http://www.w3.org/2000/svg">
<g filter="url(#filter0_i_1169_3726)">
<rect y="441.521" width="441.522" height="536.989" rx="41.2637" transform="rotate(-90 0 441.521)" fill="#2F3234"/>
<g filter="url(#filter1_d_1169_3726)">
<rect x="30.5352" y="401.084" width="360.645" height="480.309" rx="6.60219" transform="rotate(-90 30.5352 401.084)" fill="#0C0C0C"/>
</g>
<g filter="url(#filter2_d_1169_3726)">
<rect x="42.9141" y="389.53" width="337.537" height="455.551" rx="6.60219" transform="rotate(-90 42.9141 389.53)" fill="#006771"/>
</g>
<rect x="20.6318" y="430.955" width="22.4444" height="22.4444" rx="11.2222" transform="rotate(-90 20.6318 430.955)" fill="black"/>
<rect x="20.6318" y="33.1748" width="22.4444" height="22.4444" rx="11.2222" transform="rotate(-90 20.6318 33.1748)" fill="black"/>
<rect x="499.291" y="430.955" width="22.4444" height="22.4444" rx="11.2222" transform="rotate(-90 499.291 430.955)" fill="black"/>
<rect x="499.291" y="33.1748" width="22.4444" height="22.4444" rx="11.2222" transform="rotate(-90 499.291 33.1748)" fill="black"/>
<rect x="23.3359" y="428.507" width="17.3763" height="17.3763" rx="8.68816" transform="rotate(-90 23.3359 428.507)" fill="#111110"/>
<rect x="23.3359" y="30.7246" width="17.3763" height="17.3763" rx="8.68816" transform="rotate(-90 23.3359 30.7246)" fill="#111110"/>
<rect x="501.994" y="428.507" width="17.3763" height="17.3763" rx="8.68816" transform="rotate(-90 501.994 428.507)" fill="#111110"/>
<rect x="501.994" y="30.7246" width="17.3763" height="17.3763" rx="8.68816" transform="rotate(-90 501.994 30.7246)" fill="#111110"/>
</g>
<defs>
<filter id="filter0_i_1169_3726" x="0" y="0" width="536.988" height="441.521" filterUnits="userSpaceOnUse" color-interpolation-filters="sRGB">
<feFlood flood-opacity="0" result="BackgroundImageFix"/>
<feBlend mode="normal" in="SourceGraphic" in2="BackgroundImageFix" result="shape"/>
<feColorMatrix in="SourceAlpha" type="matrix" values="0 0 0 0 0 0 0 0 0 0 0 0 0 0 0 0 0 0 127 0" result="hardAlpha"/>
<feOffset/>
<feGaussianBlur stdDeviation="4.12637"/>
<feComposite in2="hardAlpha" operator="arithmetic" k2="-1" k3="1"/>
<feColorMatrix type="matrix" values="0 0 0 0 0 0 0 0 0 0.9 0 0 0 0 1 0 0 0 0.3 0"/>
<feBlend mode="normal" in2="shape" result="effect1_innerShadow_1169_3726"/>
</filter>
<filter id="filter1_d_1169_3726" x="27.2341" y="40.4395" width="486.912" height="370.548" filterUnits="userSpaceOnUse" color-interpolation-filters="sRGB">
<feFlood flood-opacity="0" result="BackgroundImageFix"/>
<feColorMatrix in="SourceAlpha" type="matrix" values="0 0 0 0 0 0 0 0 0 0 0 0 0 0 0 0 0 0 127 0" result="hardAlpha"/>
<feOffset dy="6.60219"/>
<feGaussianBlur stdDeviation="1.65055"/>
<feComposite in2="hardAlpha" operator="out"/>
<feColorMatrix type="matrix" values="0 0 0 0 0 0 0 0 0 0 0 0 0 0 0 0 0 0 0.25 0"/>
<feBlend mode="normal" in2="BackgroundImageFix" result="effect1_dropShadow_1169_3726"/>
<feBlend mode="normal" in="SourceGraphic" in2="effect1_dropShadow_1169_3726" result="shape"/>
</filter>
<filter id="filter2_d_1169_3726" x="26.4086" y="35.4877" width="488.562" height="370.548" filterUnits="userSpaceOnUse" color-interpolation-filters="sRGB">
<feFlood flood-opacity="0" result="BackgroundImageFix"/>
<feColorMatrix in="SourceAlpha" type="matrix" values="0 0 0 0 0 0 0 0 0 0 0 0 0 0 0 0 0 0 127 0" result="hardAlpha"/>
<feOffset/>
<feGaussianBlur stdDeviation="8.25274"/>
<feComposite in2="hardAlpha" operator="out"/>
<feColorMatrix type="matrix" values="0 0 0 0 0.0588235 0 0 0 0 0.639216 0 0 0 0 0.694118 0 0 0 1 0"/>
<feBlend mode="normal" in2="BackgroundImageFix" result="effect1_dropShadow_1169_3726"/>
<feBlend mode="normal" in="SourceGraphic" in2="effect1_dropShadow_1169_3726" result="shape"/>
</filter>
</defs>
</svg>
