<svg width="698" height="436" viewBox="0 0 698 436" fill="none" xmlns="http://www.w3.org/2000/svg">
<rect y="0.000976562" width="698" height="435.288" rx="20" fill="#2F3234"/>
<g filter="url(#filter0_d_870_1582)">
<rect x="63.9297" y="24.7529" width="570.142" height="389.344" rx="20" fill="#0C0C0C"/>
</g>
<rect x="21.7383" y="13.1182" width="25.4077" height="25.4077" rx="12.7039" fill="black"/>
<rect x="650.594" y="13.1182" width="25.4077" height="25.4077" rx="12.7039" fill="black"/>
<rect x="21.7383" y="401.124" width="25.4077" height="25.4077" rx="12.7039" fill="black"/>
<rect x="650.594" y="401.124" width="25.4077" height="25.4077" rx="12.7039" fill="black"/>
<rect x="24.4756" y="16.125" width="19.6705" height="19.6705" rx="9.83526" fill="#111110"/>
<rect x="653.33" y="16.125" width="19.6705" height="19.6705" rx="9.83526" fill="#111110"/>
<rect x="24.4756" y="404.13" width="19.6705" height="19.6705" rx="9.83526" fill="#111110"/>
<rect x="653.33" y="404.13" width="19.6705" height="19.6705" rx="9.83526" fill="#111110"/>
<path d="M32.4191 181.963C30.2023 181.963 28.4053 180.166 28.4053 177.949C28.4053 175.732 30.2023 173.935 32.4191 173.935H34.5041H36.4349C38.6517 173.935 40.4488 175.732 40.4488 177.949C40.4488 180.166 38.6517 181.963 36.4349 181.963H32.4191Z" fill="#DC9036"/>
<rect x="1.30957" y="181.963" width="8.0277" height="33.1196" rx="4.01385" transform="rotate(-90 1.30957 181.963)" fill="#DC9036"/>
<rect x="29.8945" y="181.963" width="8.02771" height="8.02771" rx="4.01385" transform="rotate(-90 29.8945 181.963)" fill="#E4B67F"/>
<path d="M32.4191 198.688C30.2023 198.688 28.4053 196.89 28.4053 194.674C28.4053 192.457 30.2023 190.66 32.4191 190.66H34.5041H36.4349C38.6517 190.66 40.4488 192.457 40.4488 194.674C40.4488 196.89 38.6517 198.688 36.4349 198.688H32.4191Z" fill="#DC9036"/>
<rect x="1.30957" y="198.688" width="8.0277" height="33.1196" rx="4.01385" transform="rotate(-90 1.30957 198.688)" fill="#DC9036"/>
<rect x="29.8945" y="198.688" width="8.02777" height="8.02777" rx="4.01388" transform="rotate(-90 29.8945 198.688)" fill="#E4B67F"/>
<path d="M32.4191 215.411C30.2023 215.411 28.4053 213.614 28.4053 211.397C28.4053 209.18 30.2023 207.383 32.4191 207.383H34.5041H36.4349C38.6517 207.383 40.4488 209.18 40.4488 211.397C40.4488 213.614 38.6517 215.411 36.4349 215.411H32.4191Z" fill="#DC9036"/>
<rect x="1.30957" y="215.411" width="8.0277" height="33.1196" rx="4.01385" transform="rotate(-90 1.30957 215.411)" fill="#DC9036"/>
<rect x="29.8945" y="215.411" width="8.02771" height="8.02771" rx="4.01386" transform="rotate(-90 29.8945 215.411)" fill="#E4B67F"/>
<path d="M32.4191 232.136C30.2023 232.136 28.4053 230.339 28.4053 228.122C28.4053 225.905 30.2023 224.108 32.4191 224.108H34.5041H36.4349C38.6517 224.108 40.4488 225.905 40.4488 228.122C40.4488 230.339 38.6517 232.136 36.4349 232.136H32.4191Z" fill="#DC9036"/>
<rect x="1.30957" y="232.136" width="8.0277" height="33.1196" rx="4.01385" transform="rotate(-90 1.30957 232.136)" fill="#DC9036"/>
<rect x="29.8945" y="232.136" width="8.02771" height="8.02771" rx="4.01385" transform="rotate(-90 29.8945 232.136)" fill="#E4B67F"/>
<path d="M378.36 16.9822C378.36 15.2769 379.743 13.8945 381.448 13.8945L390.889 13.8945C392.616 13.8945 394.016 15.2946 394.016 17.0217C394.016 18.7052 392.652 20.0699 390.968 20.0699H381.448C379.743 20.0699 378.36 18.6875 378.36 16.9822Z" fill="#DC9036"/>
<rect x="378.36" width="15.6561" height="16.9822" rx="7.82804" fill="#DC9036"/>
<rect x="382.068" y="11.377" width="8.69262" height="8.69262" rx="4.34631" fill="#E4B67F"/>
<path d="M345.743 16.9851C345.743 15.2799 347.126 13.8975 348.831 13.8975L358.272 13.8975C359.999 13.8975 361.399 15.2976 361.399 17.0247C361.399 18.7081 360.035 20.0728 358.351 20.0728H348.831C347.126 20.0728 345.743 18.6904 345.743 16.9851Z" fill="#DC9036"/>
<rect x="345.743" y="0.00292969" width="15.6561" height="16.9822" rx="7.82804" fill="#DC9036"/>
<rect x="349.453" y="11.3799" width="8.69262" height="8.69262" rx="4.34631" fill="#E4B67F"/>
<path d="M313.128 16.9851C313.128 15.2799 314.51 13.8975 316.216 13.8975L325.657 13.8975C327.384 13.8975 328.784 15.2976 328.784 17.0247C328.784 18.7081 327.419 20.0728 325.736 20.0728H316.216C314.51 20.0728 313.128 18.6904 313.128 16.9851Z" fill="#DC9036"/>
<rect x="313.128" y="0.00292969" width="15.6561" height="16.9822" rx="7.82804" fill="#DC9036"/>
<rect x="316.836" y="11.3799" width="8.69262" height="8.69262" rx="4.34631" fill="#E4B67F"/>
<path d="M280.502 16.9851C280.502 15.2799 281.884 13.8975 283.59 13.8975L293.031 13.8975C294.758 13.8975 296.158 15.2976 296.158 17.0247C296.158 18.7081 294.793 20.0728 293.11 20.0728H283.59C281.884 20.0728 280.502 18.6904 280.502 16.9851Z" fill="#DC9036"/>
<rect x="280.502" y="0.00292969" width="15.6561" height="16.9822" rx="7.82804" fill="#DC9036"/>
<rect x="284.21" y="11.3799" width="8.69262" height="8.69262" rx="4.34631" fill="#E4B67F"/>
<defs>
<filter id="filter0_d_870_1582" x="60.6286" y="24.7529" width="576.745" height="399.247" filterUnits="userSpaceOnUse" color-interpolation-filters="sRGB">
<feFlood flood-opacity="0" result="BackgroundImageFix"/>
<feColorMatrix in="SourceAlpha" type="matrix" values="0 0 0 0 0 0 0 0 0 0 0 0 0 0 0 0 0 0 127 0" result="hardAlpha"/>
<feOffset dy="6.60219"/>
<feGaussianBlur stdDeviation="1.65055"/>
<feComposite in2="hardAlpha" operator="out"/>
<feColorMatrix type="matrix" values="0 0 0 0 0 0 0 0 0 0 0 0 0 0 0 0 0 0 0.25 0"/>
<feBlend mode="normal" in2="BackgroundImageFix" result="effect1_dropShadow_870_1582"/>
<feBlend mode="normal" in="SourceGraphic" in2="effect1_dropShadow_870_1582" result="shape"/>
</filter>
</defs>
</svg>
