<svg width="41" height="41" viewBox="0 0 41 41" fill="none" xmlns="http://www.w3.org/2000/svg">
<path d="M1.65967 12.9838H39.3416V11.3877C39.3416 7.85369 37.5405 6.06873 33.9538 6.06873H7.04751C3.46147 6.06873 1.65894 7.85369 1.65894 11.3885L1.65967 12.9838ZM1.65967 29.6291C1.65967 33.1639 3.46074 34.9313 7.04751 34.9313H33.9538C37.5398 34.9313 39.3423 33.1639 39.3423 29.6291V16.8795H1.6582L1.65967 29.6291ZM7.39088 25.442V22.2674C7.39088 21.3068 8.06006 20.6201 9.07261 20.6201H13.2766C14.2891 20.6201 14.9583 21.3068 14.9583 22.2674V25.442C14.9583 26.4201 14.2891 27.0893 13.2766 27.0893H9.07188C8.05933 27.0893 7.39088 26.4201 7.39088 25.442Z" fill="white"/>
</svg>
